:SAMPLES-PER-SECOND 30
:FULLY-SPECIFIED
:DEGREES
366
root  36.9222 37.1615 8.37459 -158.055 80.9066 -154.944
RightUpLeg  -20.851 -3.6468 9.31417
RightLeg  29.7125 -2.79496 -1.9823
RightFoot  -5.90907 0.301551 -7.18605
RightToes  -1.74624e-010 0 -3.6325e-017
Spine  5.70443 -1.49496 13.6813
Spine1  5.26596 0.293638 -0.50146
HEad  -18.8056 -6.4839 -1.23371
LeftShoulder1  -0.651665 5.05792 -35.7253
LeftArm  22.9923 -1.73125 -43.3687
LeftForeArm  17.4885 -27.0706 -4.79832
LeftHand  -0.0417989 4.61558 3.14884
RightShoulder  -1.08394 -6.35328 31.4881
RightArm  10.158 5.06173 41.1147
RightForeArm  13.3748 6.46606 5.91097
RightHand  -0.100546 4.09077 -1.5219
LeftUpLeg  -2.19112 -0.632652 5.84724
LeftLeg  60.8045 -8.11176 -14.809
LeftFoot  8.83187 2.73936 -15.5679
LeftToes  -3.96543e-010 8.93632e-011 -2.58531e-011
367
root  38.1678 37.4455 8.26684 -160.395 81.5102 -157.09
RightUpLeg  -17.9982 -3.38045 8.70366
RightLeg  29.0465 -2.69858 -1.87187
RightFoot  -7.66223 0.173581 -6.99886
RightToes  -1.74624e-010 0 -3.6325e-017
Spine  4.7152 -0.860141 13.453
Spine1  6.61537 0.968856 -0.689369
HEad  -18.5871 -6.91447 -1.03978
LeftShoulder1  -0.696085 5.14913 -36.1176
LeftArm  24.5315 0.629642 -42.5811
LeftForeArm  16.798 -22.8887 -4.66686
LeftHand  -0.0219535 5.51302 3.49214
RightShoulder  -0.927568 -6.00673 30.4172
RightArm  9.96146 10.3366 42.7192
RightForeArm  10.3797 8.8978 5.97922
RightHand  -0.17854 6.03277 -2.11506
LeftUpLeg  -7.08021 -1.64548 5.64145
LeftLeg  64.5858 -5.67542 -12.2436
LeftFoot  5.84649 1.80851 -12.2124
LeftToes  -3.96543e-010 8.93632e-011 -2.58531e-011
368
root  39.4133 37.7267 8.15917 -163.823 82.0916 -160.266
RightUpLeg  -14.7859 -3.5754 7.97616
RightLeg  27.7673 -2.31309 -1.53744
RightFoot  -9.20847 0.0651787 -6.83413
RightToes  -1.74624e-010 0 -3.6325e-017
Spine  3.37834 -0.130396 13.3792
Spine1  8.26985 1.68315 -0.957721
HEad  -17.8081 -7.95928 -1.31743
LeftShoulder1  -0.633831 4.97259 -36.8803
LeftArm  18.4043 2.60694 -40.8918
LeftForeArm  22.2592 -17.0615 -7.38345
LeftHand  -0.025065 5.82119 2.36862
RightShoulder  -0.757612 -5.65122 28.6786
RightArm  11.2211 14.8541 44.6348
RightForeArm  7.42021 12.1565 5.80219
RightHand  -0.332087 6.61306 -3.56042
LeftUpLeg  -11.4674 -2.51128 5.29377
LeftLeg  65.1443 -3.61465 -7.9052
LeftFoot  5.33474 1.23905 -8.65157
LeftToes  -3.96543e-010 8.93632e-011 -2.58531e-011
369
root  40.6496 38.0071 8.05007 -167.671 83.5142 -163.894
RightUpLeg  -11.3481 -3.98003 6.95104
RightLeg  25.9427 -0.915955 -0.691711
RightFoot  -10.5218 -0.0221811 -6.82544
RightToes  -1.74624e-010 0 -3.6325e-017
Spine  6.22672 0.00546068 15.0599
Spine1  3.51991 2.87274 -5.50554
HEad  -14.307 -8.71428 -0.358688
LeftShoulder1  -0.493773 4.72203 -34.3035
LeftArm  5.45854 8.31914 -39.8948
LeftForeArm  32.9023 -11.2317 -9.67735
LeftHand  -0.0307357 7.34977 0.331832
RightShoulder  -0.854012 -5.88529 29.2135
RightArm  15.2516 17.35 45.462
RightForeArm  5.92661 16.6633 5.26497
RightHand  -0.229792 6.74648 -2.5451
LeftUpLeg  -14.877 -2.83597 4.6164
LeftLeg  62.6872 -2.31209 -4.27557
LeftFoot  3.62568 0.71112 -5.55799
LeftToes  -3.96543e-010 8.93632e-011 -2.58531e-011
370
root  41.8829 38.2566 7.95721 -173.191 84.795 -169.22
RightUpLeg  -7.9791 -4.47082 5.93273
RightLeg  24.0605 0.615142 -0.0348287
RightFoot  -11.5276 -0.0888329 -6.86986
RightToes  -1.74624e-010 0 -3.6325e-017
Spine  7.2313 0.199683 16.0066
Spine1  1.72463 3.66139 -9.191
HEad  -13.4794 -9.1031 0.644825
LeftShoulder1  -0.358323 4.44978 -31.8708
LeftArm  -2.14146 12.7912 -39.0777
LeftForeArm  39.3794 -6.75398 -9.54058
LeftHand  -0.0446687 8.40583 0.074083
RightShoulder  -1.00653 -6.24161 30.2427
RightArm  19.2329 21.1133 45.9813
RightForeArm  4.01297 20.8059 4.79125
RightHand  -0.2471 7.36802 -2.60418
LeftUpLeg  -17.4774 -3.15265 4.09134
LeftLeg  57.6044 -1.95718 -2.82591
LeftFoot  1.46894 0.352467 -3.26215
LeftToes  -3.96543e-010 8.93632e-011 -2.58531e-011
